
        <svg xmlns="http://www.w3.org/2000/svg" xmlns:xlink="http://www.w3.org/1999/xlink" version="1.1" width="3214.285714285714" 
        height="3068.5752523490114" viewBox="0 0 3214.285714285714 3068.5752523490114">
			<rect fill="#48466d" width="3214.285714285714" height="3068.5752523490114"/>
			<g transform="scale(10.714285714285714) translate(10, 10)">
				<defs id="SvgjsDefs9652"><linearGradient id="SvgjsLinearGradient9659"><stop id="SvgjsStop9660" stop-color="#00ddff" offset="0"></stop><stop id="SvgjsStop9661" stop-color="#ff00d4" offset="1"></stop></linearGradient><linearGradient id="SvgjsLinearGradient9662"><stop id="SvgjsStop9663" stop-color="#fe8dc6" offset="0"></stop><stop id="SvgjsStop9664" stop-color="#fed1c7" offset="1"></stop></linearGradient><linearGradient id="SvgjsLinearGradient9665"><stop id="SvgjsStop9666" stop-color="#00ddff" offset="0"></stop><stop id="SvgjsStop9667" stop-color="#ff00d4" offset="1"></stop></linearGradient></defs><g id="SvgjsG9653" featureKey="rootContainer" transform="matrix(1.4177530651146806,0,0,1.4177530651146806,-0.003341863846156461,-0.0017137599450404819)" fill="url(#SvgjsLinearGradient9659)"><path xmlns="http://www.w3.org/2000/svg" d="M186.037 47.606c-2.199-3.918-4.573-7.708-7.278-11.212-2.673-3.521-5.532-6.862-8.641-9.896-1.501-1.568-3.157-2.966-4.737-4.419l-2.486-2.04c-.416-.335-.822-.681-1.244-1.006l-1.286-.948c-3.376-2.588-6.978-4.783-10.585-6.828-1.85-.953-3.631-1.955-5.557-2.789-.942-.424-1.896-.887-2.819-1.272l-2.741-1.088-1.436-.563-1.428-.485-2.84-.963-2.865-.816c-.952-.27-1.896-.548-2.859-.748l-2.861-.651c-.947-.225-1.914-.351-2.863-.53-.955-.153-1.896-.36-2.85-.465l-2.844-.348c-.941-.134-1.888-.19-2.829-.256l-2.809-.197-2.793-.058c-.926-.021-1.848-.047-2.766-.002a92.396 92.396 0 0 0-20.951 2.813C70.563 6.3 59.408 12.063 50.684 18.606a94.794 94.794 0 0 0-11.452 10.073c-.852.814-1.59 1.705-2.365 2.525l-1.131 1.235c-.364.415-.705.842-1.052 1.256l-2.014 2.438-1.806 2.405c-4.652 6.288-7.49 11.763-9.253 15.556-.942 1.875-1.481 3.375-1.92 4.36l-.631 1.504-.003.007-.574 1.533c-.356 1.019-.997 2.493-1.593 4.497-1.313 3.961-3.002 9.899-3.925 17.664l-.334 2.989-.205 3.155c-.03.539-.075 1.083-.095 1.635l-.023 1.675c.002 1.128-.071 2.283-.009 3.46.065 4.71.49 9.809 1.436 15.183 1.26 7.265 3.635 15.029 7.239 22.851.779.461 1.548.94 2.31 1.432-4.283-8.301-7.051-16.679-8.546-24.475-2.073-10.61-1.93-20.139-1.051-27.822.868-7.709 2.508-13.618 3.789-17.561.58-1.996 1.208-3.463 1.556-4.478l.56-1.525.639-1.496c.443-.978.997-2.489 1.94-4.333 1.766-3.739 4.625-9.172 9.278-15.377 4.628-6.196 11.056-13.232 19.838-19.535A91.401 91.401 0 0 1 84.063 4.544a90.29 90.29 0 0 1 20.54-2.216c.895-.022 1.792.028 2.692.072l2.713.125 2.725.263c.912.087 1.829.165 2.74.32l2.75.409c.923.124 1.831.351 2.751.522.916.198 1.847.342 2.759.585l2.753.702c.926.215 1.834.51 2.747.795l2.748.859 2.72 1.002 1.366.503c.433.17.895.378 1.341.566l2.71 1.16c.897.402 1.764.855 2.652 1.283 1.786.825 3.494 1.846 5.243 2.803 3.416 2.057 6.815 4.246 9.982 6.808l1.207.938c.396.322.776.663 1.166.994l2.327 2.01c1.474 1.431 3.021 2.8 4.415 4.336 2.893 2.969 5.534 6.223 7.991 9.637 2.489 3.396 4.649 7.057 6.641 10.824a90.788 90.788 0 0 1 8.513 24.324 91.449 91.449 0 0 1 1.326 26.142l-.353 3.283c-.149 1.09-.337 2.177-.503 3.266-.091.543-.161 1.091-.268 1.631l-.337 1.619c-.239 1.076-.419 2.167-.706 3.232-1.022 4.289-2.432 8.505-3.994 12.605-1.699 4.128-3.542 8.104-5.743 11.943-.521.972-1.138 1.89-1.702 2.837l-.864 1.41c-.292.467-.617.913-.923 1.371-.625.907-1.233 1.826-1.872 2.723l-1.994 2.632a91.506 91.506 0 0 1-18.886 18.123 90.78 90.78 0 0 1-22.873 11.874c-4.033 1.377-8.116 2.561-12.256 3.328-4.129.801-8.283 1.359-12.424 1.538-2.068.163-4.133.099-6.187.13l-3.072-.133c-.51-.026-1.021-.038-1.53-.075l-1.522-.145c-4.062-.306-8.038-1.042-11.935-1.887-1.93-.502-3.871-.929-5.744-1.555-.94-.298-1.888-.564-2.814-.886l-2.755-1.009c-.452-.169-.927-.332-1.359-.504l-1.346-.573-2.679-1.141-2.584-1.256c-.858-.417-1.718-.824-2.541-1.303l-2.485-1.376c-.831-.448-1.608-.982-2.41-1.466-.788-.507-1.605-.963-2.362-1.505l-2.282-1.588c-.769-.512-1.49-1.083-2.214-1.645l-2.165-1.677-2.062-1.769c-.686-.585-1.373-1.164-2.01-1.793a88.332 88.332 0 0 1-2.869-2.797c-1.327-1.58-2.581-3.179-3.803-4.573-2.252-2.567-4.593-5.215-6.564-8.082-2.054-1.562-4.246-2.861-6.643-3.752-9.023-3.367-19.606-.866-21.632 9.474-2.039 10.344 6.262 19.563 15.144 15.991 8.889-3.579 2.976-12.596 2.976-12.596-8.685 10.673-19.863-.046-13.219-8.189 6.649-8.149 18.864.11 24.08 5.962 5.217 5.859 8.36 16.912 22.738 25.257 6.962 4.038 13.209 4.608 17.806 4.125l2.185.863c.952.358 1.927.661 2.895.995 1.929.698 3.931 1.195 5.926 1.768 4.028.983 8.154 1.854 12.384 2.283l1.585.19c.53.053 1.062.08 1.596.12l3.207.219c2.146.025 4.309.142 6.477.029 4.342-.079 8.712-.551 13.07-1.283 4.37-.697 8.694-1.829 12.98-3.175 8.554-2.764 16.778-6.906 24.35-12.13l2.816-2.002 2.726-2.137c.924-.697 1.782-1.473 2.661-2.227.871-.764 1.77-1.499 2.594-2.317l2.502-2.426 2.385-2.547c.811-.836 1.551-1.737 2.305-2.625.744-.897 1.533-1.76 2.224-2.701l2.131-2.78c.684-.947 1.336-1.917 2.004-2.877.329-.483.674-.956.988-1.45l.927-1.49c.605-1.001 1.262-1.973 1.823-3l1.704-3.072c.572-1.017 1.074-2.138 1.612-3.204l.792-1.62c.266-.542.453-1.029.683-1.546l1.322-3.06.357-.941.301-.826.599-1.652c.419-1.094.762-2.215 1.101-3.336.332-1.124.718-2.23 1-3.368l.865-3.405c.296-1.133.484-2.291.729-3.435l.347-1.72c.11-.574.183-1.155.275-1.733.171-1.157.361-2.31.512-3.468l.355-3.485c.143-1.159.159-2.328.233-3.491.059-1.164.139-2.327.122-3.492l.009-3.49-.154-3.482c-.023-1.161-.18-2.313-.29-3.466-.123-1.152-.215-2.306-.411-3.447l-.52-3.425-.679-3.389c-1.93-8.994-5.097-17.64-9.407-25.53z"></path></g><g id="SvgjsG9654" featureKey="symbolFeature-0" transform="matrix(0.4567630691155425,0,0,0.4567630691155425,90.46314972072162,58.27854669186836)" fill="url(#SvgjsLinearGradient9662)"><g xmlns="http://www.w3.org/2000/svg"><path d="M210.299,26.539c-0.485-0.583-1.238-0.877-2.239-0.877c-9.533,0-48.115,28.483-60.796,38.046   c-11.675-11.082-27.138-17.337-43.468-17.337c-14.703,0-29.036,5.187-40.36,14.604c-24.888,20.699-29.795,56.62-12.492,83.089   c-14.605,13.486-26.493,25.28-34.396,34.188C4.89,191.389,4.835,194.741,6.088,196.249C6.573,196.831,7.326,197,8.327,197   c0,0,0,0,0.001,0c6.467,0,28.999-14.181,58.523-36.264c10.657,7.709,23.536,11.979,37.011,11.979   c14.703,0,29.037-5.187,40.36-14.604c22.52-18.729,28.67-49.919,16.822-75.297c9.28-8.441,17.718-16.427,24.972-23.677   C214.082,31.087,211.333,27.783,210.299,26.539z M64.715,62.511C75.68,53.392,89.559,48.37,103.795,48.37   c15.966,0,31.093,6.153,42.436,17.078l0.021,0.021c0.594,0.573,1.167,1.172,1.74,1.771l0.566,0.591l0.009-0.006   c0.786,0.844,1.551,1.71,2.293,2.603c1.681,2.021,3.192,4.126,4.567,6.288c-10.808,10.458-25.458,23.653-43.782,38.892   c-19.582,16.286-36.696,29.35-49.734,38.449c-1.797-1.689-3.515-3.478-5.113-5.4c-0.688-0.827-1.348-1.667-1.985-2.519l0.006-0.008   l-0.505-0.696c-0.421-0.579-0.842-1.161-1.24-1.75l-0.128-0.192C35.784,117.814,40.452,82.69,64.715,62.511z M150.199,66.673   c13.987-9.862,24.111-15.737,27.157-15.737c0.129,0,0.211,0.013,0.257,0.024c0.385,1.944-6.685,10.635-20.725,24.339   c-1.36-2.112-2.845-4.171-4.491-6.151C151.689,68.296,150.95,67.479,150.199,66.673z M60.231,155.223   c-12.642,8.726-21.163,13.478-23.926,13.479c-0.124,0-0.204-0.012-0.251-0.023c-0.034-0.512,0.505-4.239,17.386-21.064   c0.587,0.784,1.187,1.562,1.82,2.323C56.819,151.811,58.489,153.563,60.231,155.223z M142.944,156.574   c-10.965,9.12-24.844,14.142-39.081,14.142c-12.836,0-25.111-4.003-35.332-11.24c14.71-11.052,31.075-23.991,48.025-38.089   c15.374-12.786,29.963-25.406,42.946-37.167C170.625,108.69,164.585,138.576,142.944,156.574z M184.604,57.723   c-17.661,17.652-42.281,39.76-69.326,62.252C64.52,162.19,17.542,195.256,8.328,195.254c-0.421,0-0.641-0.084-0.701-0.157   c-1.087-1.306,4.829-12.724,44.455-49.333c0.052,0.073,0.105,0.147,0.159,0.221c-20.626,20.52-18.608,22.948-17.742,23.99   c0.401,0.481,1.009,0.726,1.808,0.726c7.085-0.001,39.308-22.524,76.619-53.555c19.138-15.916,36.565-31.566,49.073-44.067   c20.008-19.999,18.016-22.394,17.166-23.417c-0.401-0.482-1.008-0.726-1.807-0.726c-4.537,0-17.873,8.727-28.547,16.266   c-0.029-0.03-0.059-0.061-0.087-0.091c30.667-23.12,53.363-37.45,59.338-37.45c0.421,0,0.641,0.084,0.701,0.156   C208.868,27.946,211.072,31.267,184.604,57.723z"></path><path d="M33.5,155c1.746,0,3.167-1.42,3.167-3.167s-1.42-3.167-3.167-3.167s-3.167,1.421-3.167,3.167S31.754,155,33.5,155z    M33.5,150.667c0.643,0,1.167,0.523,1.167,1.167c0,0.643-0.523,1.167-1.167,1.167c-0.644,0-1.167-0.523-1.167-1.167   C32.333,151.19,32.856,150.667,33.5,150.667z"></path><path d="M173.667,81c-2.573,0-4.667,2.093-4.667,4.667s2.093,4.667,4.667,4.667s4.667-2.093,4.667-4.667S176.24,81,173.667,81z    M173.667,88.333c-1.47,0-2.667-1.196-2.667-2.667S172.196,83,173.667,83s2.667,1.196,2.667,2.667S175.137,88.333,173.667,88.333z"></path><path d="M127,44.667c2.021,0,3.667-1.645,3.667-3.667c0-2.021-1.645-3.667-3.667-3.667c-2.022,0-3.667,1.645-3.667,3.667   C123.333,43.022,124.978,44.667,127,44.667z M127,39.333c0.919,0,1.667,0.748,1.667,1.667s-0.748,1.667-1.667,1.667   s-1.667-0.748-1.667-1.667S126.081,39.333,127,39.333z"></path></g></g><g id="SvgjsG9655" featureKey="nameFeature-0" transform="matrix(0.5928906676895574,0,0,0.5928906676895574,39.22468130407721,167.07899852446798)" fill="url(#SvgjsLinearGradient9665)"><path d="M22.8 24.84 q1.72 1.08 2.62 2.64 t0.9 3.48 q0 4.52 -3.44 6.92 q-2.32 1.68 -6.28 2.12 l-0.16 0 q-0.56 0 -0.92 -0.36 q-0.48 -0.44 -0.48 -1.04 l0 -2.88 q0 -0.52 0.36 -0.92 t0.88 -0.48 q1.88 -0.2 2.92 -0.88 q0.8 -0.48 1.08 -1.24 q0.16 -0.44 0.16 -1.12 q0 -0.44 -0.16 -0.76 t-0.56 -0.6 q-1.16 -0.8 -3 -1.36 l-0.64 -0.2 q-2 -0.56 -3.68 -0.92 q-0.36 -0.08 -1.16 -0.28 l-0.44 -0.12 q-1.44 -0.36 -3.04 -1 q-2.36 -1 -3.88 -2.52 q-1.76 -1.76 -1.76 -4.64 q0 -3.96 3.04 -6.44 q2.08 -1.76 5.84 -2.24 q0.64 -0.08 1.1 0.36 t0.46 1.04 l0 2.88 q0 0.52 -0.32 0.92 t-0.82 0.46 t-1.02 0.22 q-1.16 0.44 -1.64 0.86 t-0.68 0.86 q-0.2 0.68 -0.2 1.28 q0 0.32 0.36 0.68 q0.56 0.56 1.64 1 q0.48 0.2 1.68 0.6 l5 1.24 l0.24 0.08 q1.88 0.52 2.72 0.8 q1.88 0.64 3.28 1.56 z M16.12 15.8 q-0.48 -0.12 -0.78 -0.5 t-0.3 -0.9 l0 -2.92 q0 -0.64 0.52 -1.08 q0.2 -0.2 0.52 -0.26 t0.6 -0.02 q3.52 0.56 5.72 2.4 q3 2.48 3.2 6.32 q0.04 0.56 -0.38 1.02 t-1.02 0.46 l-3.12 0 q-0.52 0 -0.92 -0.36 t-0.44 -0.88 q-0.16 -1.04 -0.68 -1.72 q-0.84 -1 -2.6 -1.52 q-0.12 0 -0.16 -0.04 l-0.16 0 z M11.44 34.16 q0.48 0.08 0.8 0.48 t0.32 0.88 l0 2.96 q0 0.64 -0.48 1.08 q-0.4 0.32 -0.92 0.32 l-0.2 0 q-3.72 -0.56 -6.12 -2.44 q-3.12 -2.48 -3.52 -6.92 q-0.08 -0.64 0.36 -1.1 t1.04 -0.46 l3.16 0 q0.56 0 0.96 0.38 t0.44 0.94 q0.12 2 1.96 3.08 q0.84 0.48 2.2 0.8 z M52.342 10 q4.76 0 7.68 2.74 t2.92 7.3 t-2.88 7.28 t-7.72 2.72 l-7.64 0 l0 8.16 q0 0.56 -0.42 0.98 t-0.98 0.42 l-3.04 0 q-0.56 0 -0.98 -0.42 t-0.42 -0.98 l0 -12.4 q0 -0.56 0.42 -0.98 t0.98 -0.42 l11.84 0 q2.68 0 3.84 -1.16 q1.16 -1.04 1.16 -3.16 t-1.2 -3.26 t-3.8 -1.14 l-11.84 0 q-0.56 0 -0.98 -0.42 t-0.42 -0.98 l0 -2.88 q0 -0.56 0.42 -0.98 t0.98 -0.42 l12.08 0 z M101.244 37.72 q0.28 0.64 -0.14 1.3 t-1.14 0.66 l-26.64 0 q-0.36 0 -0.68 -0.18 t-0.48 -0.46 q-0.44 -0.64 -0.12 -1.32 l1.24 -2.92 q0.16 -0.4 0.52 -0.64 t0.76 -0.24 l18.64 0 l-6.56 -15.68 l-5.36 12.8 q-0.16 0.4 -0.5 0.62 t-0.78 0.22 l-3.36 0 q-0.76 0 -1.2 -0.64 q-0.16 -0.28 -0.2 -0.64 t0.08 -0.68 l8.12 -19.04 q0.16 -0.4 0.5 -0.64 t0.78 -0.24 l3.84 0 q0.44 0 0.78 0.24 t0.5 0.64 z M127.466 15.719999999999999 q-0.52 -0.08 -0.86 -0.48 t-0.34 -0.92 l0 -2.92 q0 -0.68 0.48 -1.08 t1.12 -0.32 q3.44 0.56 6.12 2.44 q3.48 2.52 4.92 6.68 q0.24 0.68 -0.16 1.28 t-1.16 0.6 l-3.2 0 q-0.44 0 -0.8 -0.22 t-0.52 -0.62 q-0.88 -2.08 -2.68 -3.32 q-1.4 -0.88 -2.92 -1.12 z M137.58599999999998 29 q0.76 0 1.16 0.6 t0.16 1.28 q-1.44 4.16 -4.92 6.68 q-2.68 1.88 -6.12 2.44 l-0.2 0 q-0.56 0 -0.92 -0.36 q-0.48 -0.36 -0.48 -1.04 l0 -2.92 q0 -0.52 0.32 -0.92 t0.84 -0.48 q1.68 -0.24 2.96 -1.12 q1.8 -1.24 2.68 -3.32 q0.16 -0.4 0.52 -0.62 t0.8 -0.22 l3.2 0 z M123.26599999999999 10.48 q0.52 0.4 0.52 1.08 l0 3.12 q0 0.44 -0.3 0.82 t-0.74 0.54 q-0.56 0.12 -0.88 0.28 q-1.6 0.72 -2.72 1.96 q-2.28 2.56 -2.28 6.7 t2.28 6.74 q1.4 1.6 3.6 2.24 q0.44 0.12 0.74 0.5 t0.3 0.82 l0 3.16 q0 0.68 -0.52 1.08 q-0.36 0.32 -0.92 0.32 l-0.28 0 q-4.28 -0.92 -7.24 -4.16 q-3.8 -4.28 -3.8 -10.68 t3.8 -10.68 q2.96 -3.28 7.24 -4.12 q0.64 -0.16 1.2 0.28 z M172.568 33.92 q0.6 0 1 0.42 t0.4 1.02 l0 2.92 q0 0.56 -0.4 0.98 t-1 0.42 l-19.76 0 q-0.56 0 -0.98 -0.42 t-0.42 -0.98 l0 -2.92 q0 -0.6 0.42 -1.02 t0.98 -0.42 l19.76 0 z M152.808 27.72 q-0.56 0 -0.98 -0.42 t-0.42 -0.98 l0 -3 q0 -0.56 0.42 -0.98 t0.98 -0.42 l17.96 0 q0.6 0 1.02 0.42 t0.42 0.98 l0 3 q0 0.56 -0.42 0.98 t-1.02 0.42 l-17.96 0 z M172.568 10 q0.6 0 1 0.42 t0.4 0.98 l0 2.92 q0 0.6 -0.4 1.02 t-1 0.42 l-19.76 0 q-0.56 0 -0.98 -0.42 t-0.42 -1.02 l0 -2.92 q0 -0.56 0.42 -0.98 t0.98 -0.42 l19.76 0 z M218.73200000000003 15.8 q-0.48 -0.08 -0.8 -0.48 t-0.32 -0.88 l0 -3.04 q0 -0.6 0.48 -1.08 q0.52 -0.4 1.16 -0.28 q4.72 0.8 8 4.2 q1.68 1.76 2.72 4 q0.16 0.28 0.14 0.64 t-0.22 0.68 t-0.5 0.5 t-0.66 0.18 l-3.4 0 q-0.36 0 -0.68 -0.18 t-0.52 -0.5 q-0.56 -0.84 -1.04 -1.32 q-1.8 -1.84 -4.36 -2.44 z M214.65200000000002 10.32 q0.48 0.48 0.48 1.08 l0 3.04 q0 0.48 -0.32 0.88 t-0.8 0.48 q-2.56 0.6 -4.36 2.44 q-2.48 2.68 -2.48 6.7 t2.48 6.7 q1.72 1.84 4.36 2.44 q0.48 0.08 0.8 0.48 t0.32 0.88 l0 3.04 q0 0.64 -0.52 1.08 q-0.4 0.32 -0.88 0.32 l-0.24 0 q-4.8 -0.88 -8 -4.24 q-4.16 -4.28 -4.16 -10.7 t4.16 -10.7 q3.24 -3.4 8 -4.2 q0.64 -0.12 1.16 0.28 z M231.372 24.119999999999997 q0.04 0.28 0.04 0.84 q0 0.88 -0.12 2.04 q-0.6 5.08 -4.04 8.64 q-3.28 3.4 -8 4.24 l-0.24 0 q-0.48 0 -0.92 -0.32 q-0.48 -0.48 -0.48 -1.08 l0 -3.04 q0 -0.48 0.32 -0.88 t0.8 -0.48 q2.64 -0.6 4.36 -2.44 q1.4 -1.48 2 -3.4 l-8.48 0 q-0.6 0 -1 -0.4 t-0.4 -1 l0 -2.84 q0 -0.56 0.4 -0.98 t1 -0.42 l13.36 0 q0.56 0 0.96 0.38 t0.44 0.94 l0 0.2 z M270.034 37.72 q0.28 0.64 -0.14 1.3 t-1.14 0.66 l-26.64 0 q-0.36 0 -0.68 -0.18 t-0.48 -0.46 q-0.44 -0.64 -0.12 -1.32 l1.24 -2.92 q0.16 -0.4 0.52 -0.64 t0.76 -0.24 l18.64 0 l-6.56 -15.68 l-5.36 12.8 q-0.16 0.4 -0.5 0.62 t-0.78 0.22 l-3.36 0 q-0.76 0 -1.2 -0.64 q-0.16 -0.28 -0.2 -0.64 t0.08 -0.68 l8.12 -19.04 q0.16 -0.4 0.5 -0.64 t0.78 -0.24 l3.84 0 q0.44 0 0.78 0.24 t0.5 0.64 z M302.29600000000005 34.24 q0.56 0 0.98 0.42 t0.42 0.98 l0 2.88 q0 0.56 -0.42 0.98 t-0.98 0.42 l-21.48 0 q-0.56 0 -0.98 -0.42 t-0.42 -0.98 l0 -2.92 q0 -0.48 0.32 -0.88 l5.72 -6.92 q0.44 -0.52 1.08 -0.52 l3.84 0 q0.4 0 0.76 0.22 t0.54 0.6 t0.12 0.8 t-0.34 0.7 l-3.84 4.64 l14.68 0 z M302.29600000000005 10 q0.56 0 0.98 0.42 t0.42 1.02 l0 2.92 q0 0.52 -0.32 0.92 l-5.72 6.84 q-0.4 0.52 -1.08 0.52 l-3.8 0 q-0.4 0 -0.76 -0.22 t-0.56 -0.58 q-0.32 -0.88 0.2 -1.52 l3.84 -4.6 l-14.4 0 q-0.6 0 -1.02 -0.42 t-0.42 -1.02 l0 -2.84 q0 -0.6 0.42 -1.02 t1.02 -0.42 l21.2 0 z M337.238 33.92 q0.6 0 1 0.42 t0.4 1.02 l0 2.92 q0 0.56 -0.4 0.98 t-1 0.42 l-19.76 0 q-0.56 0 -0.98 -0.42 t-0.42 -0.98 l0 -2.92 q0 -0.6 0.42 -1.02 t0.98 -0.42 l19.76 0 z M317.478 27.72 q-0.56 0 -0.98 -0.42 t-0.42 -0.98 l0 -3 q0 -0.56 0.42 -0.98 t0.98 -0.42 l17.96 0 q0.6 0 1.02 0.42 t0.42 0.98 l0 3 q0 0.56 -0.42 0.98 t-1.02 0.42 l-17.96 0 z M337.238 10 q0.6 0 1 0.42 t0.4 0.98 l0 2.92 q0 0.6 -0.4 1.02 t-1 0.42 l-19.76 0 q-0.56 0 -0.98 -0.42 t-0.42 -1.02 l0 -2.92 q0 -0.56 0.42 -0.98 t0.98 -0.42 l19.76 0 z"></path></g>
			</g>
		</svg>
	